<?xml version="1.0" encoding="utf-8"?>
<!-- Generator: Adobe Illustrator 25.0.0, SVG Export Plug-In . SVG Version: 6.00 Build 0)  -->
<svg version="1.1" xmlns="http://www.w3.org/2000/svg" xmlns:xlink="http://www.w3.org/1999/xlink" x="0px" y="0px"
	 viewBox="0 0 642.53 200.76" style="enable-background:new 0 0 642.53 200.76;" xml:space="preserve">
<style type="text/css">
	.st0{fill:#FFFFFF;}
	.st1{fill:#1FB099;}
	.st2{fill:#04232C;}
	.st3{fill:#05232C;}
	.st4{fill:#FDDD03;}
	.st5{fill:#0973BA;}
	.st6{fill:url(#SVGID_1_);}
</style>
<g id="SILAEPIC_MTB">
</g>
<g id="SILAEPIC_PORTRAIT">
</g>
<g id="ICON">
</g>
<g id="SILAEPIC_LANDSCAPE">
	<g>
		<g>
			<g>
				<path class="st2" d="M54.25,172.08l-0.03-11.68l-5.73,9.62h-2.03l-5.7-9.37v11.43h-4.23v-19.47h3.73l7.29,12.1l7.17-12.1h3.7
					l0.06,19.47H54.25z"/>
				<path class="st2" d="M67.12,156.28H60.9v-3.67h16.96v3.67h-6.23v15.8h-4.51V156.28z"/>
				<path class="st2" d="M97.19,163.72c0.63,0.83,0.95,1.84,0.95,3.04c0,1.71-0.66,3.02-1.99,3.93c-1.33,0.92-3.26,1.38-5.8,1.38
					H80.28v-19.47h9.51c2.37,0,4.19,0.45,5.46,1.36c1.27,0.91,1.9,2.14,1.9,3.7c0,0.95-0.23,1.79-0.68,2.53
					c-0.45,0.74-1.09,1.33-1.9,1.75C95.68,162.31,96.56,162.9,97.19,163.72z M84.76,156.01v4.59h4.48c1.11,0,1.96-0.19,2.53-0.58
					c0.57-0.39,0.86-0.96,0.86-1.72c0-0.76-0.29-1.33-0.86-1.71c-0.57-0.38-1.42-0.57-2.53-0.57H84.76z M92.7,168.1
					c0.6-0.39,0.9-0.99,0.9-1.81c0-1.61-1.2-2.42-3.59-2.42h-5.26v4.81h5.26C91.2,168.69,92.09,168.49,92.7,168.1z"/>
				<path class="st2" d="M127.14,172.08l-0.03-11.68l-5.73,9.62h-2.03l-5.7-9.37v11.43h-4.23v-19.47h3.73l7.29,12.1l7.17-12.1h3.7
					l0.06,19.47H127.14z"/>
				<path class="st2" d="M148.8,167.91h-9.04l-1.72,4.17h-4.62l8.68-19.47h4.45l8.7,19.47h-4.73L148.8,167.91z M147.38,164.49
					l-3.09-7.45l-3.09,7.45H147.38z"/>
				<path class="st2" d="M169.68,172.08l-3.75-5.42h-0.22h-3.92v5.42h-4.51v-19.47h8.43c1.72,0,3.22,0.29,4.49,0.86
					c1.27,0.57,2.25,1.39,2.93,2.45c0.69,1.06,1.03,2.31,1.03,3.75c0,1.45-0.35,2.69-1.04,3.74c-0.7,1.05-1.68,1.85-2.96,2.41
					l4.37,6.26H169.68z M168.54,157.16c-0.7-0.58-1.73-0.88-3.09-0.88h-3.67v6.79h3.67c1.35,0,2.38-0.3,3.09-0.89
					c0.7-0.59,1.06-1.43,1.06-2.5C169.6,158.58,169.25,157.74,168.54,157.16z"/>
				<path class="st2" d="M190.54,167.91h-9.04l-1.72,4.17h-4.62l8.68-19.47h4.45l8.7,19.47h-4.73L190.54,167.91z M189.12,164.49
					l-3.09-7.45l-3.09,7.45H189.12z"/>
				<path class="st2" d="M202.08,156.28h-6.23v-3.67h16.96v3.67h-6.23v15.8h-4.51V156.28z"/>
				<path class="st2" d="M233.09,152.61v19.47h-4.51v-7.98h-8.84v7.98h-4.51v-19.47h4.51v7.68h8.84v-7.68H233.09z"/>
				<path class="st2" d="M241.67,171.11c-1.62-0.87-2.89-2.07-3.81-3.6c-0.92-1.53-1.38-3.25-1.38-5.16c0-1.91,0.46-3.63,1.38-5.16
					c0.92-1.53,2.19-2.73,3.81-3.6c1.62-0.87,3.44-1.31,5.46-1.31c2.02,0,3.84,0.44,5.45,1.31c1.61,0.87,2.88,2.07,3.81,3.6
					c0.93,1.53,1.39,3.25,1.39,5.16c0,1.91-0.46,3.63-1.39,5.16c-0.93,1.53-2.2,2.73-3.81,3.6c-1.61,0.87-3.43,1.31-5.45,1.31
					C245.11,172.41,243.29,171.98,241.67,171.11z M250.25,167.78c0.93-0.53,1.65-1.27,2.18-2.21c0.53-0.95,0.79-2.02,0.79-3.23
					c0-1.2-0.26-2.28-0.79-3.23c-0.53-0.95-1.26-1.68-2.18-2.21c-0.93-0.53-1.97-0.79-3.11-0.79c-1.15,0-2.19,0.26-3.11,0.79
					c-0.93,0.53-1.65,1.27-2.18,2.21c-0.53,0.95-0.79,2.02-0.79,3.23c0,1.21,0.26,2.28,0.79,3.23c0.53,0.95,1.26,1.68,2.18,2.21
					c0.93,0.53,1.96,0.79,3.11,0.79C248.28,168.57,249.32,168.31,250.25,167.78z"/>
				<path class="st2" d="M279.03,152.61v19.47h-3.7l-9.71-11.82v11.82h-4.45v-19.47h3.73l9.68,11.82v-11.82H279.03z"/>
			</g>
		</g>
		<g>
			<g id="LOGO1_10_">
				<g>
					<polygon class="st2" points="194.28,118.01 194.28,96.42 172.26,118.01 					"/>
					<path class="st2" d="M446.35,66.65h-68.2h-8.79h-14.04v0h-76.8v0l-59.54,0v0h-68.17V28.93l-31.53,31.53v6.19h-13.94h-8.79
						h-68.2l0,22.06l21.32,21.13H28.35l0.01,30.74l68.2,0v0h22.73h8.79h22.73v0l59.4,0v0h68.81v3.24l30.92,28.58v-31.82h36.67h8.7
						h14.04h8.79h68.2v-30.77h-17.99l17.99-17.08V66.65z M97.16,89.22l-33.1,0.03l33.06,32.59l0.03,0.02v0.11l0.01,10.43h-0.01
						l-60.61,0v-0.21l0-14.16h0h33.03L36.54,85.29l0-10.46h60.62V89.22z M119.89,132.4h-15.16V74.83h15.16V132.4z M142.63,132.4
						h-15.16V63.85l15.16-15.16V132.4z M210.79,132.4l-60.56,0v-14.35l27.53-28.83h-27.53V74.83h60.56V132.4z M279.03,89.22
						l-30.31,28.79h30.31v14.39h-60.62v-28.79l15.16-14.39v21.58l23.39-21.58l-38.55,0V74.83l60.62,0L279.03,89.22z M347.13,132.4
						h-45.37v21.55l-15.16-13.73l0.1-22.21h45.37V89.36h-30.31l0,14.51L286.7,89.36l0-14.53h60.42V132.4z M369.96,132.4H354.8V74.83
						h15.16V132.4z M438.16,89.23L423,103.62V89.23h-30.31v28.79h45.47v14.39h-60.62V74.83l60.62,0V89.23z"/>
				</g>
			</g>
			<g>
				<g>
					<path class="st2" d="M529.79,119.01c0,0,2.04-0.7,2.97-1.41c0.94-0.7,4.93,5.64,4.93,5.64h-3.76c2.11,3.52,10.96,5.4,10.96,5.4
						s8.85-1.88,10.96-5.4h-3.76c0,0,3.99-6.34,4.93-5.64c0.94,0.7,2.97,1.41,2.97,1.41s4.38-7.28,0-8.69
						c-4.38-1.41-15.11-1.64-15.11-1.64s-10.72,0.23-15.11,1.64C525.41,111.73,529.79,119.01,529.79,119.01z"/>
					<path class="st2" d="M578.57,57.82c0,0-10.74,0.47-13.3,2.8c-2.57,2.33-5.37,10.5-5.37,10.5s7.94-2.1,11.67-3.5
						S578.57,57.82,578.57,57.82z"/>
					<path class="st2" d="M519.55,67.62c3.73,1.4,11.67,3.5,11.67,3.5s-2.8-8.17-5.37-10.5c-2.57-2.33-13.3-2.8-13.3-2.8
						S515.82,66.22,519.55,67.62z"/>
					<path class="st2" d="M613.81,66.01l-2.61-18.15l-12.46,13.01l-0.3,0.12c-0.18,0.07-0.41,0.15-0.67,0.22l-2.16,0.63l0.32-2.23
						c0.8-5.58,0.23-10.02-0.18-12.17l-1.18-6.17l-6.21-0.97c-3.13-0.49-6.22-0.75-9.18-0.78l-1.67-0.01l1.61-11.15l-13.37,3.97
						c-4.08,1.21-9.28,4.41-19.54,19.45l-1.32,1.94l-1.19-1.82c-11.18-17.05-17.33-18.88-19.65-19.57l-13.37-3.97l1.61,11.15
						l-1.67,0.01c-2.96,0.02-6.04,0.28-9.18,0.78l-6.21,0.97l-1.18,6.17c-0.41,2.15-0.98,6.59-0.18,12.17l0.32,2.22l-2.16-0.62
						c-0.26-0.07-0.49-0.15-0.68-0.22l-0.3-0.12l-12.46-13.01l-2.61,18.15c-1.29,8.95,0.12,27.89,14.67,35.53l0.56,0.3l0.17,0.61
						c2.58,9.53,7.65,26.57,12.64,33.59l13.93,19.63l0.74-7.85l2.28,3.7c0.45,0.73,0.88,1.39,1.27,1.96
						c3.43,4.9,9.45,10.07,17.91,15.37l4.75,2.98l4.75-2.98c8.46-5.31,14.48-10.48,17.91-15.38c0.39-0.56,0.82-1.22,1.28-1.96
						l2.28-3.7l0.74,7.85l13.93-19.62c4.99-7.03,10.06-24.06,12.64-33.59l0.17-0.61l0.56-0.29C613.69,93.9,615.1,74.95,613.81,66.01
						z M501.39,48.84l0.19-1.01l1.01-0.16c2.9-0.46,5.75-0.69,8.45-0.69c4.61,0,7.99,0.67,10.05,1.25l-1.35-9.4l2.18,0.65
						c7.32,2.17,18.12,20.27,22.76,28.59c4.15-7.01,16.23-26.52,23.2-28.59l2.18-0.65l-1.35,9.4c2.07-0.58,5.44-1.25,10.05-1.25
						c2.7,0,5.54,0.23,8.45,0.69l1.01,0.16l0.19,1.01c0.03,0.18,3.29,18.12-10.18,26.65c-2.27,9.53-11.92,49.55-14.22,52.87
						c-2.32,3.35-13.96,5.64-18.86,6.48l-0.24,0.04l-0.24-0.04c-4.9-0.83-16.55-3.13-18.86-6.48c-2.3-3.32-11.95-43.34-14.22-52.87
						C498.1,66.95,501.35,49.02,501.39,48.84z M592.3,96.3c-1.22,4.74-7.35,28-12.62,35.42l-2.27,3.2l-1.39-14.78
						c-3.6,8.08-10.6,23.35-14.6,29.05c-3.55,5.07-10.53,10.05-15.76,13.33L544.9,163l-0.77-0.49c-5.23-3.28-12.21-8.26-15.76-13.33
						c-3.99-5.71-11-20.97-14.6-29.05l-1.39,14.77l-2.27-3.2c-5.27-7.42-11.4-30.67-12.62-35.42
						c-17.33-5.41-14.15-28.98-14.12-29.23l0.43-2.96l2.06,2.16c2.29,2.39,8.41,3.24,13.38,3.24c0.38,0,0.6-0.01,0.61-0.01
						l0.66-0.02l0.45,0.48c0.38,0.41,9.34,10.13,12.75,20.59c1.05,3.24,2.04,8.21,3.18,13.96c2.3,11.58,5.45,27.43,10.02,29.96
						c6.22,3.43,15.38,8,17.98,9.29c2.61-1.29,11.76-5.86,17.98-9.29c4.58-2.52,7.72-18.38,10.02-29.95
						c1.14-5.75,2.13-10.72,3.18-13.96c3.4-10.47,12.36-20.19,12.74-20.59l0.45-0.48l0.66,0.02c0.01,0,0.23,0.01,0.61,0.01
						c4.97,0,11.09-0.85,13.38-3.24l2.06-2.16l0.43,2.96C606.45,67.31,609.63,90.89,592.3,96.3z"/>
				</g>
			</g>
		</g>
	</g>
</g>
<g id="SILAEPIC">
</g>
</svg>
